<?xml version="1.0" encoding="utf-8"?>
<!-- Generator: Adobe Illustrator 22.0.1, SVG Export Plug-In . SVG Version: 6.00 Build 0)  -->
<svg version="1.1" id="레이어_1" xmlns="http://www.w3.org/2000/svg" xmlns:xlink="http://www.w3.org/1999/xlink" x="0px"
	 y="0px" viewBox="0 0 300 300" style="enable-background:new 0 0 300 300;" xml:space="preserve">
<style type="text/css">
	.st0{fill:#888888;}
	.st1{fill:#FFFFFF;}
</style>
<g>
	<g>
		<path class="st0" d="M149.9,276.5c-70.6,0-128.1-57.2-128.1-127.6S79.2,21.4,149.9,21.4s128.1,57.2,128.1,127.6
			S220.5,276.5,149.9,276.5z M149.9,28.2C83,28.2,28.6,82.4,28.6,148.9S83,269.7,149.9,269.7c66.9,0,121.3-54.2,121.3-120.8
			S216.7,28.2,149.9,28.2z"/>
	</g>
	<path class="st1" d="M274.5,148.4c0,68.8-55.8,124.7-124.7,124.7c-68.8,0-124.7-55.8-124.7-124.7C25.2,79.6,81,23.8,149.9,23.8
		C218.7,23.8,274.5,79.6,274.5,148.4z"/>
	<path class="st0" d="M143.6,197.4l-46.4-68.8c-2.7-4,0.8-9,6.2-9h46.4h46.4c5.5,0,9,5,6.2,9l-46.4,68.8
		C153.4,201.4,146.4,201.4,143.6,197.4z"/>
</g>
</svg>
