<svg height="479pt" viewBox="1 -48 479.99829 479" width="479pt" xmlns="http://www.w3.org/2000/svg"><path d="m414.246094 54.976562c-.511719-.644531-1.121094-1.203124-1.808594-1.65625l-18.128906-12.089843 12.890625-25.679688c1.976562-3.953125.371093-8.761719-3.585938-10.734375-10.234375-5.117187-22.144531-5.710937-32.84375-1.644531-10.695312 4.066406-19.199219 12.425781-23.453125 23.050781l-.695312 1.753906h-10.3125c-34.257813-.019531-62.957032 25.914063-66.398438 60l-5.191406 52h-117.410156l-7.023438-7.023437c-33.292968-33.304687-87.28125-33.304687-120.574218 0l-17.367188 17.367187c-3.125 3.125-3.125 8.1875 0 11.3125l32 32c3.121094 3.121094 8.1875 3.121094 11.308594 0l23.761718-23.761718c8.328126-7.695313 21.207032-7.589844 29.410157.242187l13.175781 13.175781v106.871094c-6.429688-5.042968-12.554688-10.460937-18.347656-16.222656-3.121094-3.125-8.1875-3.125-11.308594 0l-24 24c-3.125 3.121094-3.125 8.1875 0 11.3125 100.398438 100.144531 262.910156 100.144531 363.308594 0 3.125-3.125 3.125-8.191406 0-11.3125l-24-24c-3.121094-3.125-8.1875-3.125-11.308594 0-5.792969 5.761719-11.917969 11.179688-18.34375 16.222656v-114.871094l34.34375 34.34375c1.988281 1.984376 4.871094 2.78125 7.597656 2.09375l64-16c3.558594-.890624 6.054688-4.082031 6.058594-7.75v-48c0-1.816406-.617188-3.582031-1.753906-5zm-113.777344 3.839844c9.488281-9.53125 22.394531-14.871094 35.839844-14.839844h7.691406v3.046876l-17 8.511718c-8.40625 4.21875-15.222656 11.03125-19.441406 19.433594-2.207032 4.398438-3.644532 9.144531-4.25 14.03125l-6.398438 50.976562h-16.113281l5.035156-50.398437c1.191407-11.636719 6.363281-22.5 14.636719-30.761719zm-28.46875 97.160156h23.652344v32.34375c-.007813 8.644532-7.011719 15.648438-15.652344 15.65625h-88c-8.644531-.007812-15.648438-7.011718-15.65625-15.65625v-32.34375zm119.894531 134.824219 12.695313 12.695313c-92.679688 86.5-236.503906 86.5-329.183594 0l12.695312-12.695313c85.652344 79.519531 218.140626 79.519531 303.792969 0zm-239.289062 24.398438 24.761719-24.796875c34.59375-34.582032 90.667968-34.582032 125.261718 0l24.800782 24.796875c-55.449219 25.667969-119.375 25.667969-174.824219 0zm213.046875-164.878907c-2.285156-2.289062-5.726563-2.972656-8.714844-1.734374-2.988281 1.238281-4.9375 4.15625-4.9375 7.390624v145.601563c-3.203125 2.054687-6.402344 4-9.714844 5.863281l-28.34375-28.351562c-40.839844-40.832032-107.046875-40.832032-147.886718 0l-28.34375 28.351562c-3.28125-1.863281-6.519532-3.808594-9.710938-5.863281v-121.601563c-.003906-2.121093-.84375-4.15625-2.347656-5.65625l-15.511719-15.519531c-7.019531-7.023437-16.574219-10.921875-26.503906-10.824219-9.582031-.027343-18.777344 3.785157-25.535157 10.582032l-18.101562 18.097656-20.691406-20.679688 11.714844-11.710937c27.046874-27.054687 70.902343-27.054687 97.949218 0l9.371094 9.367187c1.5 1.5 3.53125 2.34375 5.65625 2.34375h16.34375v32.34375c.019531 17.472657 14.179688 31.632813 31.65625 31.65625h88c17.472656-.023437 31.632812-14.183593 31.652344-31.65625v-38.472656c.109375-.289062.203125-.582031.28125-.878906l7.25-57.984375c1.140625-9.105469 6.757812-17.035156 14.964844-21.136719l21.425781-10.71875c2.710937-1.355468 4.421875-4.125 4.425781-7.152344v-14.464843l2.132812-5.351563c4.277344-10.617187 15.210938-16.980468 26.554688-15.457031l-11.847656 23.6875c-1.808594 3.613281-.640625 8.003906 2.71875 10.242187l22.96875 15.3125 47.328125 59.152344c-27.359375 3.945313-51.75 19.332032-67.097657 42.320313zm98.347656 31.398438-53.546875 13.394531-16.160156-16.160156 1.738281-2.609375c14.730469-22.082031 39.292969-35.605469 65.832031-36.238281l2.136719 2.671875zm0 0"/><path d="m384 91.976562h16v16h-16zm0 0"/></svg>